<?xml version="1.0" encoding="utf-8"?>
<!-- Generator: Adobe Illustrator 26.0.1, SVG Export Plug-In . SVG Version: 6.00 Build 0)  -->
<svg version="1.1" id="Layer_1" xmlns="http://www.w3.org/2000/svg" xmlns:xlink="http://www.w3.org/1999/xlink" x="0px" y="0px"
	 viewBox="0 0 150 136.1" style="enable-background:new 0 0 150 136.1;" xml:space="preserve">
<style type="text/css">
	.st0{fill:#FFFFFF;}
	.st1{fill:#9E578A;}
</style>
<rect x="73" y="88.1" class="st0" width="4" height="8"/>
<rect x="73" y="40.1" class="st0" width="4" height="8"/>
<rect x="47" y="66.1" class="st0" width="8" height="4"/>
<rect x="95" y="66.1" class="st0" width="8" height="4"/>
<rect x="90" y="81.1" transform="matrix(0.7071 -0.7071 0.7071 0.7071 -33.2149 89.9814)" class="st0" width="4" height="8"/>
<rect x="56" y="47.1" transform="matrix(0.7071 -0.7071 0.7071 0.7071 -19.186 55.9774)" class="st0" width="4" height="8"/>
<rect x="54" y="83.1" transform="matrix(0.7071 -0.7071 0.7071 0.7071 -43.2054 65.9679)" class="st0" width="8" height="4"/>
<rect x="88" y="49.1" transform="matrix(0.7071 -0.7071 0.7071 0.7071 -9.2043 80.0039)" class="st0" width="8" height="4"/>
<path class="st0" d="M100.5,136.1c-7.2,0-15.4-2.8-24-8.2c-13.4-8.5-26.2-22.7-36.1-39.8S24.7,52.8,24,36.9
	C23.2,20.6,28,8.6,37.5,3.1s22.2-3.6,36,5.1c13.4,8.5,26.2,22.7,36.1,39.8s15.7,35.3,16.4,51.2c0.7,16.3-4.1,28.3-13.6,33.8
	C108.8,135.1,104.7,136.2,100.5,136.1z M49.5,4.1C46,4,42.5,4.9,39.4,6.7c-8.1,4.7-12.2,15.4-11.6,30.1c0.7,15.2,6.3,32.7,15.9,49.4
	s21.9,30.3,34.8,38.5c12.4,7.9,23.8,9.7,31.9,5.1s12.2-15.4,11.6-30.1c-0.7-15.2-6.3-32.7-15.9-49.4S84.2,20,71.3,11.8
	C63.5,6.6,56,4.1,49.5,4.1z"/>
<path class="st0" d="M49.5,136.1c-4.2,0.1-8.4-1-12-3.1c-9.5-5.5-14.3-17.4-13.6-33.8c0.7-15.8,6.5-34,16.4-51.2S63,16.7,76.4,8.2
	c13.8-8.8,26.6-10.6,36-5.1s14.3,17.4,13.6,33.8c-0.7,15.8-6.5,34-16.4,51.2s-22.7,31.3-36.1,39.8C65,133.4,56.8,136.1,49.5,136.1z
	 M100.5,4.1c-6.5,0-13.9,2.6-21.8,7.6c-12.8,8.2-25.2,21.8-34.8,38.5S28.7,84.3,28,99.6c-0.7,14.7,3.5,25.4,11.6,30.1
	s19.4,2.9,31.9-5.1c12.8-8.2,25.2-21.8,34.8-38.5s15.2-34.1,15.9-49.4c0.6-14.7-3.5-25.4-11.6-30.1C107.5,4.9,104,4.1,100.5,4.1z"/>
<path class="st0" d="M75,108.1c-19.8,0-38.5-4-52.5-11.3C8,89.2,0,79,0,68.1S8,47,22.5,39.5c14-7.3,32.7-11.4,52.5-11.4
	s38.5,4,52.5,11.3C142,47,150,57.2,150,68.1s-8,21.1-22.5,28.6C113.5,104,94.8,108.1,75,108.1z M75,32.1c-39.1,0-71,16.1-71,36
	s31.9,36,71,36s71-16.1,71-36S114.1,32.1,75,32.1z"/>
<circle class="st1" cx="75" cy="68.1" r="15"/>
<path class="st0" d="M75,85.1c-9.4,0-17-7.6-17-17s7.6-17,17-17s17,7.6,17,17S84.4,85.1,75,85.1z M75,55.1c-7.2,0-13,5.8-13,13
	s5.8,13,13,13s13-5.8,13-13S82.2,55.1,75,55.1z"/>
</svg>
