<svg id="Layer_1" data-name="Layer 1" xmlns="http://www.w3.org/2000/svg" xmlns:xlink="http://www.w3.org/1999/xlink" viewBox="0 0 369.03 356.62"><defs><style>.cls-1{fill:none;}.cls-2{clip-path:url(#clip-path);}.cls-3{fill:url(#linear-gradient);}.cls-4{fill:#fff;}.cls-5{clip-path:url(#clip-path-2);}.cls-6{fill:url(#linear-gradient-2);}.cls-7{clip-path:url(#clip-path-3);}.cls-8{fill:url(#linear-gradient-3);}.cls-9{clip-path:url(#clip-path-4);}.cls-10{fill:url(#linear-gradient-4);}.cls-11{clip-path:url(#clip-path-5);}.cls-12{fill:url(#linear-gradient-5);}.cls-13{clip-path:url(#clip-path-6);}.cls-14{fill:url(#linear-gradient-6);}.cls-15{clip-path:url(#clip-path-7);}.cls-16{fill:url(#linear-gradient-7);}.cls-17{clip-path:url(#clip-path-8);}.cls-18{fill:url(#linear-gradient-8);}.cls-19{clip-path:url(#clip-path-9);}.cls-20{fill:url(#linear-gradient-9);}.cls-21{clip-path:url(#clip-path-10);}.cls-22{fill:url(#linear-gradient-10);}</style><clipPath id="clip-path" transform="translate(7.23 -7.43)"><polygon class="cls-1" points="177.29 185.74 177.29 371.48 369.49 371.48 369.49 0 177.29 0 177.29 185.74"/></clipPath><linearGradient id="linear-gradient" x1="-104.21" y1="598.14" x2="-104.21" y2="599.37" gradientTransform="matrix(288, 0, 0, -288, 30198.07, 172619.74)" gradientUnits="userSpaceOnUse"><stop offset="0" stop-color="#1478c8"/><stop offset="1" stop-color="#288cdc"/></linearGradient><clipPath id="clip-path-2" transform="translate(7.23 -7.43)"><polygon class="cls-1" points="177.29 185.74 118.12 342.82 280.67 400 399 85.83 236.45 28.66 177.29 185.74"/></clipPath><linearGradient id="linear-gradient-2" x1="-105.06" y1="598.34" x2="-105.06" y2="599.58" gradientTransform="matrix(243.57, 88.65, 88.65, -243.57, -27326.27, 155380.11)" xlink:href="#linear-gradient"/><clipPath id="clip-path-3" transform="translate(7.23 -7.43)"><polygon class="cls-1" points="177.29 185.74 78.45 299.57 196.24 395.08 393.91 167.43 276.12 71.91 177.29 185.74"/></clipPath><linearGradient id="linear-gradient-3" x1="-106.04" y1="598.26" x2="-106.04" y2="599.52" gradientTransform="matrix(176.5, 148.1, 148.1, -176.5, -69794.81, 121584.55)" xlink:href="#linear-gradient"/><clipPath id="clip-path-4" transform="translate(7.23 -7.43)"><polygon class="cls-1" points="177.29 185.74 60.77 250.75 128.04 363.35 361.07 233.33 293.8 120.73 177.29 185.74"/></clipPath><linearGradient id="linear-gradient-4" x1="-107.08" y1="597.83" x2="-107.08" y2="599.1" gradientTransform="matrix(100.8, 174.59, 174.59, -100.8, -93507.54, 79199.31)" xlink:href="#linear-gradient"/><clipPath id="clip-path-5" transform="translate(7.23 -7.43)"><polygon class="cls-1" points="177.29 185.74 63.72 205.09 83.74 314.84 310.88 276.14 290.86 166.39 177.29 185.74"/></clipPath><linearGradient id="linear-gradient-5" x1="-108.12" y1="596.98" x2="-108.12" y2="598.26" gradientTransform="matrix(30.01, 170.17, 170.17, -30.01, -98271.39, 36509.68)" xlink:href="#linear-gradient"/><clipPath id="clip-path-6" transform="translate(7.23 -7.43)"><polygon class="cls-1" points="177.29 185.74 82.65 169.61 65.96 261.07 255.24 293.33 271.93 201.87 177.29 185.74"/></clipPath><linearGradient id="linear-gradient-6" x1="-109.04" y1="595.64" x2="-109.04" y2="596.92" gradientTransform="matrix(-25.01, 141.81, 141.81, 25.01, -87101.72, 730.82)" xlink:href="#linear-gradient"/><clipPath id="clip-path-7" transform="translate(7.23 -7.43)"><polygon class="cls-1" points="177.29 185.74 110.71 148.59 72.27 212.94 205.43 287.23 243.87 222.89 177.29 185.74"/></clipPath><linearGradient id="linear-gradient-7" x1="-109.74" y1="593.67" x2="-109.74" y2="594.94" gradientTransform="matrix(-57.6, 99.77, 99.77, 57.6, -65427.76, -23105.59)" xlink:href="#linear-gradient"/><clipPath id="clip-path-8" transform="translate(7.23 -7.43)"><polygon class="cls-1" points="177.29 185.74 140.22 143.06 96.05 178.87 170.18 264.24 214.35 228.43 177.29 185.74"/></clipPath><linearGradient id="linear-gradient-8" x1="-110.05" y1="590.72" x2="-110.05" y2="591.98" gradientTransform="matrix(-66.19, 55.54, 55.54, 66.19, -39941.31, -32848.98)" xlink:href="#linear-gradient"/><clipPath id="clip-path-9" transform="translate(7.23 -7.43)"><polygon class="cls-1" points="177.29 185.74 164.14 150.83 128.02 163.54 154.31 233.35 190.44 220.65 177.29 185.74"/></clipPath><linearGradient id="linear-gradient-9" x1="-109.69" y1="585.77" x2="-109.69" y2="587.01" gradientTransform="matrix(-54.13, 19.7, 19.7, 54.13, -17312.18, -29392.36)" xlink:href="#linear-gradient"/><clipPath id="clip-path-10" transform="translate(7.23 -7.43)"><polygon class="cls-1" points="177.29 185.74 177.29 167.17 158.07 167.17 158.07 204.31 177.29 204.31 177.29 185.74"/></clipPath><linearGradient id="linear-gradient-10" x1="-107.36" y1="573.34" x2="-107.36" y2="574.58" gradientTransform="matrix(-28.8, 0, 0, 28.8, -2907.35, -16351.63)" xlink:href="#linear-gradient"/></defs><g id="shape_2" data-name="shape 2"><g class="cls-2"><g id="curve_1_c1" data-name="curve 1 c1"><ellipse class="cls-3" cx="184.51" cy="178.31" rx="184.51" ry="178.31"/></g></g><g id="curve_1_c0" data-name="curve 1 c0"><ellipse class="cls-4" cx="184.51" cy="178.31" rx="175.29" ry="169.4"/></g><g class="cls-5"><g id="curve_1_c1-2" data-name="curve 1 c1"><ellipse class="cls-6" cx="184.51" cy="178.31" rx="166.06" ry="160.48"/></g></g><g id="curve_1_c0-2" data-name="curve 1 c0"><ellipse class="cls-4" cx="184.51" cy="178.31" rx="156.84" ry="151.56"/></g><g class="cls-7"><g id="curve_1_c1-3" data-name="curve 1 c1"><ellipse class="cls-8" cx="184.51" cy="178.31" rx="147.61" ry="142.65"/></g></g><g id="curve_1_c0-3" data-name="curve 1 c0"><ellipse class="cls-4" cx="184.51" cy="178.31" rx="138.39" ry="133.73"/></g><g class="cls-9"><g id="curve_1_c1-4" data-name="curve 1 c1"><ellipse class="cls-10" cx="184.51" cy="178.31" rx="129.16" ry="124.82"/></g></g><g id="curve_1_c0-4" data-name="curve 1 c0"><ellipse class="cls-4" cx="184.51" cy="178.31" rx="119.93" ry="115.9"/></g><g class="cls-11"><g id="curve_1_c1-5" data-name="curve 1 c1"><ellipse class="cls-12" cx="184.51" cy="178.31" rx="110.71" ry="106.99"/></g></g><g id="curve_1_c0-5" data-name="curve 1 c0"><ellipse class="cls-4" cx="184.51" cy="178.31" rx="101.48" ry="98.07"/></g><g class="cls-13"><g id="curve_1_c1-6" data-name="curve 1 c1"><ellipse class="cls-14" cx="184.51" cy="178.31" rx="92.26" ry="89.16"/></g></g><g id="curve_1_c0-6" data-name="curve 1 c0"><ellipse class="cls-4" cx="184.51" cy="178.31" rx="83.03" ry="80.24"/></g><g class="cls-15"><g id="curve_1_c1-7" data-name="curve 1 c1"><ellipse class="cls-16" cx="184.51" cy="178.31" rx="73.81" ry="71.32"/></g></g><g id="curve_1_c0-7" data-name="curve 1 c0"><ellipse class="cls-4" cx="184.51" cy="178.31" rx="64.58" ry="62.41"/></g><g class="cls-17"><g id="curve_1_c1-8" data-name="curve 1 c1"><ellipse class="cls-18" cx="184.51" cy="178.31" rx="55.35" ry="53.49"/></g></g><g id="curve_1_c0-8" data-name="curve 1 c0"><ellipse class="cls-4" cx="184.51" cy="178.31" rx="46.13" ry="44.58"/></g><g class="cls-19"><g id="curve_1_c1-9" data-name="curve 1 c1"><path class="cls-20" d="M189.91,219.25c-19.15,6.74-40.33-2.8-47.3-21.31s2.9-39,22.06-45.71S205,155,212,173.54,209.06,212.52,189.91,219.25Z" transform="translate(7.23 -7.43)"/></g></g><g id="curve_1_c0-9" data-name="curve 1 c0"><ellipse class="cls-4" cx="184.51" cy="178.31" rx="27.68" ry="26.75"/></g><g class="cls-21"><g id="curve_1_c1-10" data-name="curve 1 c1"><ellipse class="cls-22" cx="184.51" cy="178.31" rx="18.45" ry="17.83"/></g></g><g id="curve_1_c0-10" data-name="curve 1 c0"><ellipse class="cls-4" cx="184.51" cy="178.31" rx="9.23" ry="8.92"/></g></g></svg>