<svg id="Layer_1" data-name="Layer 1" xmlns="http://www.w3.org/2000/svg" xmlns:xlink="http://www.w3.org/1999/xlink" viewBox="0 0 369.47 356.41"><defs><style>.cls-1{fill:none;}.cls-2{clip-path:url(#clip-path);}.cls-3{fill:url(#linear-gradient);}.cls-4{fill:#fff;}.cls-5{clip-path:url(#clip-path-2);}.cls-6{fill:url(#linear-gradient-2);}.cls-7{clip-path:url(#clip-path-3);}.cls-8{fill:url(#linear-gradient-3);}.cls-9{clip-path:url(#clip-path-4);}.cls-10{fill:url(#linear-gradient-4);}.cls-11{clip-path:url(#clip-path-5);}.cls-12{fill:url(#linear-gradient-5);}.cls-13{clip-path:url(#clip-path-6);}.cls-14{fill:url(#linear-gradient-6);}.cls-15{clip-path:url(#clip-path-7);}.cls-16{fill:url(#linear-gradient-7);}.cls-17{clip-path:url(#clip-path-8);}.cls-18{fill:url(#linear-gradient-8);}.cls-19{clip-path:url(#clip-path-9);}.cls-20{fill:url(#linear-gradient-9);}.cls-21{clip-path:url(#clip-path-10);}.cls-22{fill:url(#linear-gradient-10);}</style><clipPath id="clip-path" transform="translate(7.73 -7.43)"><polygon class="cls-1" points="177.01 185.63 177.01 371.26 369.44 371.26 369.44 0 177.01 0 177.01 185.63"/></clipPath><linearGradient id="linear-gradient" x1="-106.99" y1="598.14" x2="-106.99" y2="599.37" gradientTransform="matrix(288, 0, 0, -288, 30998.57, 172619.74)" gradientUnits="userSpaceOnUse"><stop offset="0" stop-color="#1478c8"/><stop offset="1" stop-color="#288cdc"/></linearGradient><clipPath id="clip-path-2" transform="translate(7.73 -7.43)"><polygon class="cls-1" points="177.01 185.63 65.68 313.61 198.35 421 421 165.04 288.33 57.65 177.01 185.63"/></clipPath><linearGradient id="linear-gradient-2" x1="-108.23" y1="596.01" x2="-108.23" y2="597.27" gradientTransform="matrix(198.56, 166.61, 166.61, -198.56, -77739.33, 136685.7)" xlink:href="#linear-gradient"/><clipPath id="clip-path-3" transform="translate(7.73 -7.43)"><polygon class="cls-1" points="177.01 185.63 25.4 211.42 52.13 357.67 355.35 306.09 328.61 159.84 177.01 185.63"/></clipPath><linearGradient id="linear-gradient-3" x1="-107.82" y1="593.28" x2="-107.82" y2="594.56" gradientTransform="matrix(40.01, 226.9, 226.9, -40.01, -130270.28, 48411.14)" xlink:href="#linear-gradient"/><clipPath id="clip-path-4" transform="translate(7.73 -7.43)"><polygon class="cls-1" points="177.01 185.63 60.35 120.66 -7 233.19 226.31 363.13 293.66 250.6 177.01 185.63"/></clipPath><linearGradient id="linear-gradient-4" x1="-105.51" y1="591.17" x2="-105.51" y2="592.44" gradientTransform="matrix(-100.8, 174.59, 174.59, 100.8, -113774.41, -41055.19)" xlink:href="#linear-gradient"/><clipPath id="clip-path-5" transform="translate(7.73 -7.43)"><polygon class="cls-1" points="177.01 185.63 137.52 80.97 29.02 119.06 108 328.38 216.5 290.29 177.01 185.63"/></clipPath><linearGradient id="linear-gradient-5" x1="-101.88" y1="590.93" x2="-101.88" y2="592.17" gradientTransform="matrix(-162.38, 59.1, 59.1, 162.38, -51319.65, -89855.21)" xlink:href="#linear-gradient"/><clipPath id="clip-path-6" transform="translate(7.73 -7.43)"><polygon class="cls-1" points="177.01 185.63 209.91 98.41 119.5 66.67 53.69 241.1 144.1 272.85 177.01 185.63"/></clipPath><linearGradient id="linear-gradient-6" x1="-98.27" y1="593.35" x2="-98.27" y2="594.59" gradientTransform="matrix(-135.32, -49.25, -49.25, 135.32, 16140.69, -85035.22)" xlink:href="#linear-gradient"/><clipPath id="clip-path-7" transform="translate(7.73 -7.43)"><polygon class="cls-1" points="177.01 185.63 243.67 148.5 205.18 84.2 71.86 158.45 110.35 222.76 177.01 185.63"/></clipPath><linearGradient id="linear-gradient-7" x1="-96.5" y1="598.44" x2="-96.5" y2="599.72" gradientTransform="matrix(-57.6, -99.77, -99.77, 57.6, 54394.26, -43956.15)" xlink:href="#linear-gradient"/><clipPath id="clip-path-8" transform="translate(7.73 -7.43)"><polygon class="cls-1" points="177.01 185.63 233.86 195.3 243.88 140.46 130.18 121.12 120.15 175.96 177.01 185.63"/></clipPath><linearGradient id="linear-gradient-8" x1="-98.54" y1="605.35" x2="-98.54" y2="606.63" gradientTransform="matrix(15, -85.09, -85.09, -15, 53217.43, 892.79)" xlink:href="#linear-gradient"/><clipPath id="clip-path-9" transform="translate(7.73 -7.43)"><polygon class="cls-1" points="177.01 185.63 201.74 214.07 231.23 190.21 181.75 133.33 152.27 157.19 177.01 185.63"/></clipPath><linearGradient id="linear-gradient-9" x1="-106.81" y1="612.52" x2="-106.81" y2="613.77" gradientTransform="matrix(44.12, -37.02, -37.02, -44.12, 27598.93, 23277.97)" xlink:href="#linear-gradient"/><clipPath id="clip-path-10" transform="translate(7.73 -7.43)"><polygon class="cls-1" points="177.01 185.63 177.01 204.19 196.25 204.19 196.25 167.07 177.01 167.07 177.01 185.63"/></clipPath><linearGradient id="linear-gradient-10" x1="-129.43" y1="618.43" x2="-129.43" y2="619.67" gradientTransform="matrix(28.8, 0, 0, -28.8, 3912.31, 18006.78)" xlink:href="#linear-gradient"/></defs><g id="shape_4" data-name="shape 4"><g class="cls-2"><g id="curve_1_c1" data-name="curve 1 c1"><ellipse class="cls-3" cx="184.73" cy="178.21" rx="184.73" ry="178.21"/></g></g><g id="curve_1_c0" data-name="curve 1 c0"><ellipse class="cls-4" cx="184.73" cy="178.21" rx="175.5" ry="169.29"/></g><g class="cls-5"><g id="curve_1_c1-2" data-name="curve 1 c1"><path class="cls-6" d="M283.88,62.77c70.34,56.93,79.51,158.1,20.49,226S140.48,365.43,70.14,308.49-9.38,150.39,49.64,82.54,213.54,5.83,283.88,62.77Z" transform="translate(7.73 -7.43)"/></g></g><g id="curve_1_c0-2" data-name="curve 1 c0"><ellipse class="cls-4" cx="184.73" cy="178.21" rx="157.02" ry="151.47"/></g><g class="cls-7"><g id="curve_1_c1-3" data-name="curve 1 c1"><path class="cls-8" d="M322.55,160.87c14.17,77.54-39.5,151.49-119.88,165.16s-157-38.1-171.21-115.64S71,58.9,151.34,45.23,308.38,83.33,322.55,160.87Z" transform="translate(7.73 -7.43)"/></g></g><g id="curve_1_c0-3" data-name="curve 1 c0"><ellipse class="cls-4" cx="184.73" cy="178.21" rx="138.55" ry="133.65"/></g><g class="cls-9"><g id="curve_1_c1-4" data-name="curve 1 c1"><ellipse class="cls-10" cx="184.73" cy="178.21" rx="129.31" ry="124.74"/></g></g><g id="curve_1_c0-4" data-name="curve 1 c0"><ellipse class="cls-4" cx="184.73" cy="178.21" rx="120.08" ry="115.83"/></g><g class="cls-11"><g id="curve_1_c1-5" data-name="curve 1 c1"><ellipse class="cls-12" cx="184.73" cy="178.21" rx="110.84" ry="106.92"/></g></g><g id="curve_1_c0-5" data-name="curve 1 c0"><ellipse class="cls-4" cx="184.73" cy="178.21" rx="101.6" ry="98.01"/></g><g class="cls-13"><g id="curve_1_c1-6" data-name="curve 1 c1"><ellipse class="cls-14" cx="184.73" cy="178.21" rx="92.37" ry="89.1"/></g></g><g id="curve_1_c0-6" data-name="curve 1 c0"><ellipse class="cls-4" cx="184.73" cy="178.21" rx="83.13" ry="80.19"/></g><g class="cls-15"><g id="curve_1_c1-7" data-name="curve 1 c1"><ellipse class="cls-16" cx="184.73" cy="178.21" rx="73.89" ry="71.28"/></g></g><g id="curve_1_c0-7" data-name="curve 1 c0"><ellipse class="cls-4" cx="184.73" cy="178.21" rx="64.66" ry="62.37"/></g><g class="cls-17"><g id="curve_1_c1-8" data-name="curve 1 c1"><path class="cls-18" d="M122.43,176.35c5.31-29.08,34.06-48.5,64.2-43.37s50.27,32.86,45,61.93-34.07,48.5-64.21,43.37S117.11,205.42,122.43,176.35Z" transform="translate(7.73 -7.43)"/></g></g><g id="curve_1_c0-8" data-name="curve 1 c0"><ellipse class="cls-4" cx="184.73" cy="178.21" rx="46.18" ry="44.55"/></g><g class="cls-19"><g id="curve_1_c1-9" data-name="curve 1 c1"><ellipse class="cls-20" cx="184.73" cy="178.21" rx="36.95" ry="35.64"/></g></g><g id="curve_1_c0-9" data-name="curve 1 c0"><ellipse class="cls-4" cx="184.73" cy="178.21" rx="27.71" ry="26.73"/></g><g class="cls-21"><g id="curve_1_c1-10" data-name="curve 1 c1"><ellipse class="cls-22" cx="184.73" cy="178.21" rx="18.47" ry="17.82"/></g></g><g id="curve_1_c0-10" data-name="curve 1 c0"><ellipse class="cls-4" cx="184.73" cy="178.21" rx="9.24" ry="8.91"/></g></g></svg>