<svg id="Layer_1" data-name="Layer 1" xmlns="http://www.w3.org/2000/svg" xmlns:xlink="http://www.w3.org/1999/xlink" viewBox="0 0 369.34 356.95"><defs><style>.cls-1{fill:none;}.cls-2{clip-path:url(#clip-path);}.cls-3{fill:url(#linear-gradient);}.cls-4{fill:#fff;}.cls-5{clip-path:url(#clip-path-2);}.cls-6{fill:url(#linear-gradient-2);}.cls-7{clip-path:url(#clip-path-3);}.cls-8{fill:url(#linear-gradient-3);}.cls-9{clip-path:url(#clip-path-4);}.cls-10{fill:url(#linear-gradient-4);}.cls-11{clip-path:url(#clip-path-5);}.cls-12{fill:url(#linear-gradient-5);}.cls-13{clip-path:url(#clip-path-6);}.cls-14{fill:url(#linear-gradient-6);}.cls-15{clip-path:url(#clip-path-7);}.cls-16{fill:url(#linear-gradient-7);}.cls-17{clip-path:url(#clip-path-8);}.cls-18{fill:url(#linear-gradient-8);}.cls-19{clip-path:url(#clip-path-9);}.cls-20{fill:url(#linear-gradient-9);}.cls-21{clip-path:url(#clip-path-10);}.cls-22{fill:url(#linear-gradient-10);}</style><clipPath id="clip-path" transform="translate(7.73 -7.19)"><polygon class="cls-1" points="177.19 185.91 177.19 371.82 369.55 371.82 369.55 0 177.19 0 177.19 185.91"/></clipPath><linearGradient id="linear-gradient" x1="215.89" y1="884.15" x2="215.89" y2="884.77" gradientTransform="matrix(576, 0, 0, -576, -124168, 509629.55)" gradientUnits="userSpaceOnUse"><stop offset="0" stop-color="#1478c8"/><stop offset="1" stop-color="#288cdc"/></linearGradient><clipPath id="clip-path-2" transform="translate(7.73 -7.19)"><polygon class="cls-1" points="176.94 185.67 146.87 350.44 317.37 379.5 377.5 49.95 207 20.89 176.94 185.67"/></clipPath><linearGradient id="linear-gradient-2" x1="215.7" y1="883.98" x2="215.7" y2="884.6" gradientTransform="matrix(510.52, 90.02, 90.02, -510.52, -189537.58, 432215.07)" xlink:href="#linear-gradient"/><clipPath id="clip-path-3" transform="translate(7.73 -7.19)"><polygon class="cls-1" points="176.94 185.67 124.3 325.43 268.92 376.3 374.18 96.78 229.57 45.91 176.94 185.67"/></clipPath><linearGradient id="linear-gradient-3" x1="215.5" y1="883.76" x2="215.5" y2="884.38" gradientTransform="matrix(433.01, 157.6, 157.6, -433.01, -232459.92, 349026.42)" xlink:href="#linear-gradient"/><clipPath id="clip-path-4" transform="translate(7.73 -7.19)"><polygon class="cls-1" points="176.94 185.67 109.61 298.37 226.22 363.44 360.88 138.03 244.26 72.97 176.94 185.67"/></clipPath><linearGradient id="linear-gradient-4" x1="215.3" y1="883.47" x2="215.3" y2="884.09" gradientTransform="matrix(349.18, 201.6, 201.6, -349.18, -253163.22, 265374.76)" xlink:href="#linear-gradient"/><clipPath id="clip-path-5" transform="translate(7.73 -7.19)"><polygon class="cls-1" points="176.94 185.67 102.75 271.12 191.16 342.82 339.54 171.92 251.13 100.22 176.94 185.67"/></clipPath><linearGradient id="linear-gradient-5" x1="215.09" y1="883.09" x2="215.09" y2="883.72" gradientTransform="matrix(264.75, 222.15, 222.15, -264.75, -253004, 186273.35)" xlink:href="#linear-gradient"/><clipPath id="clip-path-6" transform="translate(7.73 -7.19)"><polygon class="cls-1" points="176.94 185.67 103.26 245.42 165.08 316.63 312.44 197.13 250.62 125.92 176.94 185.67"/></clipPath><linearGradient id="linear-gradient-6" x1="214.86" y1="882.58" x2="214.86" y2="883.21" gradientTransform="matrix(185.12, 220.62, 220.62, -185.12, -234376.54, 116219.37)" xlink:href="#linear-gradient"/><clipPath id="clip-path-7" transform="translate(7.73 -7.19)"><polygon class="cls-1" points="176.94 185.67 110.3 222.85 148.77 287.25 282.05 212.89 243.57 148.49 176.94 185.67"/></clipPath><linearGradient id="linear-gradient-7" x1="214.61" y1="881.86" x2="214.61" y2="882.49" gradientTransform="matrix(115.2, 199.53, 199.53, -115.2, -200568.24, 58991.09)" xlink:href="#linear-gradient"/><clipPath id="clip-path-8" transform="translate(7.73 -7.19)"><polygon class="cls-1" points="176.94 185.67 122.71 204.74 142.45 257.15 250.91 219 231.17 166.59 176.94 185.67"/></clipPath><linearGradient id="linear-gradient-8" x1="214.28" y1="880.73" x2="214.28" y2="881.37" gradientTransform="matrix(59.1, 162.38, 162.38, -59.1, -155543.49, 17454.4)" xlink:href="#linear-gradient"/><clipPath id="clip-path-9" transform="translate(7.73 -7.19)"><polygon class="cls-1" points="176.94 185.67 139.05 192.12 145.73 228.74 221.51 215.83 214.83 179.21 176.94 185.67"/></clipPath><linearGradient id="linear-gradient-9" x1="213.75" y1="878.61" x2="213.75" y2="879.25" gradientTransform="matrix(20, 113.45, 113.45, -20, -103805.89, -6489.48)" xlink:href="#linear-gradient"/><clipPath id="clip-path-10" transform="translate(7.73 -7.19)"><polygon class="cls-1" points="177.19 185.91 157.95 185.91 157.95 204.5 196.43 204.5 196.43 185.91 177.19 185.91"/></clipPath><linearGradient id="linear-gradient-10" x1="212.37" y1="872.58" x2="212.37" y2="873.22" gradientTransform="matrix(0, 57.6, 57.6, 0, -50094.18, -12053.95)" xlink:href="#linear-gradient"/></defs><g id="shape_1" data-name="shape 1"><g class="cls-2"><g id="curve_1_c1" data-name="curve 1 c1"><ellipse class="cls-3" cx="184.67" cy="178.47" rx="184.67" ry="178.47"/></g></g><g id="curve_1_c0" data-name="curve 1 c0"><ellipse class="cls-4" cx="184.67" cy="178.47" rx="175.44" ry="169.55"/></g><g class="cls-5"><g id="curve_1_c1-2" data-name="curve 1 c1"><ellipse class="cls-6" cx="184.67" cy="178.47" rx="166.2" ry="160.63"/></g></g><g id="curve_1_c0-2" data-name="curve 1 c0"><ellipse class="cls-4" cx="184.67" cy="178.47" rx="156.97" ry="151.7"/></g><g class="cls-7"><g id="curve_1_c1-3" data-name="curve 1 c1"><ellipse class="cls-8" cx="184.67" cy="178.47" rx="147.74" ry="142.78"/></g></g><g id="curve_1_c0-3" data-name="curve 1 c0"><ellipse class="cls-4" cx="184.67" cy="178.47" rx="138.5" ry="133.86"/></g><g class="cls-9"><g id="curve_1_c1-4" data-name="curve 1 c1"><ellipse class="cls-10" cx="184.67" cy="178.47" rx="129.27" ry="124.93"/></g></g><g id="curve_1_c0-4" data-name="curve 1 c0"><ellipse class="cls-4" cx="184.67" cy="178.47" rx="120.04" ry="116.01"/></g><g class="cls-11"><g id="curve_1_c1-5" data-name="curve 1 c1"><ellipse class="cls-12" cx="184.67" cy="178.47" rx="110.8" ry="107.08"/></g></g><g id="curve_1_c0-5" data-name="curve 1 c0"><ellipse class="cls-4" cx="184.67" cy="178.47" rx="101.57" ry="98.16"/></g><g class="cls-13"><g id="curve_1_c1-6" data-name="curve 1 c1"><ellipse class="cls-14" cx="184.67" cy="178.47" rx="92.34" ry="89.24"/></g></g><g id="curve_1_c0-6" data-name="curve 1 c0"><ellipse class="cls-4" cx="184.67" cy="178.47" rx="83.1" ry="80.31"/></g><g class="cls-15"><g id="curve_1_c1-7" data-name="curve 1 c1"><path class="cls-16" d="M240.91,150c20.4,34.15,8.29,77.81-27,97.52s-80.51,8-100.9-26.13-8.3-77.8,27-97.52S220.51,115.83,240.91,150Z" transform="translate(7.73 -7.19)"/></g></g><g id="curve_1_c0-7" data-name="curve 1 c0"><ellipse class="cls-4" cx="184.67" cy="178.47" rx="64.63" ry="62.47"/></g><g class="cls-17"><g id="curve_1_c1-8" data-name="curve 1 c1"><ellipse class="cls-18" cx="184.67" cy="178.47" rx="55.4" ry="53.54"/></g></g><g id="curve_1_c0-8" data-name="curve 1 c0"><ellipse class="cls-4" cx="184.67" cy="178.47" rx="46.17" ry="44.62"/></g><g class="cls-19"><g id="curve_1_c1-9" data-name="curve 1 c1"><ellipse class="cls-20" cx="184.67" cy="178.47" rx="36.93" ry="35.69"/></g></g><g id="curve_1_c0-9" data-name="curve 1 c0"><ellipse class="cls-4" cx="184.67" cy="178.47" rx="27.7" ry="26.77"/></g><g class="cls-21"><g id="curve_1_c1-10" data-name="curve 1 c1"><ellipse class="cls-22" cx="184.67" cy="178.47" rx="18.47" ry="17.85"/></g></g><g id="curve_1_c0-10" data-name="curve 1 c0"><ellipse class="cls-4" cx="184.67" cy="178.47" rx="9.23" ry="8.92"/></g></g></svg>