<svg id="Layer_1" data-name="Layer 1" xmlns="http://www.w3.org/2000/svg" xmlns:xlink="http://www.w3.org/1999/xlink" viewBox="0 0 371.19 356.61"><defs><style>.cls-1{fill:none;}.cls-2{clip-path:url(#clip-path);}.cls-3{fill:url(#linear-gradient);}.cls-4{fill:#fff;}.cls-5{clip-path:url(#clip-path-2);}.cls-6{fill:url(#linear-gradient-2);}.cls-7{clip-path:url(#clip-path-3);}.cls-8{fill:url(#linear-gradient-3);}.cls-9{clip-path:url(#clip-path-4);}.cls-10{fill:url(#linear-gradient-4);}.cls-11{clip-path:url(#clip-path-5);}.cls-12{fill:url(#linear-gradient-5);}.cls-13{clip-path:url(#clip-path-6);}.cls-14{fill:url(#linear-gradient-6);}.cls-15{clip-path:url(#clip-path-7);}.cls-16{fill:url(#linear-gradient-7);}.cls-17{clip-path:url(#clip-path-8);}.cls-18{fill:url(#linear-gradient-8);}.cls-19{clip-path:url(#clip-path-9);}.cls-20{fill:url(#linear-gradient-9);}.cls-21{clip-path:url(#clip-path-10);}.cls-22{fill:url(#linear-gradient-10);}</style><clipPath id="clip-path" transform="translate(8.28 -7.34)"><polygon class="cls-1" points="177.32 185.65 177.32 371.39 370.65 371.39 370.65 -0.09 177.32 -0.09 177.32 185.65"/></clipPath><linearGradient id="linear-gradient" x1="-105.6" y1="598.14" x2="-105.6" y2="599.37" gradientTransform="matrix(288, 0, 0, -288, 30599.12, 172619.83)" gradientUnits="userSpaceOnUse"><stop offset="0" stop-color="#1478c8"/><stop offset="1" stop-color="#288cdc"/></linearGradient><clipPath id="clip-path-2" transform="translate(8.28 -7.34)"><polygon class="cls-1" points="177.32 185.65 90.32 330.42 241 414 415 124.47 264.31 40.88 177.32 185.65"/></clipPath><linearGradient id="linear-gradient-2" x1="-106.81" y1="597.43" x2="-106.81" y2="598.68" gradientTransform="matrix(224.47, 129.6, 129.6, -224.47, -53345.71, 148269.46)" xlink:href="#linear-gradient"/><clipPath id="clip-path-3" transform="translate(8.28 -7.34)"><polygon class="cls-1" points="177.32 185.65 43.37 259.95 120.71 388.63 388.59 240.04 311.26 111.36 177.32 185.65"/></clipPath><linearGradient id="linear-gradient-3" x1="-107.63" y1="596.08" x2="-107.63" y2="597.35" gradientTransform="matrix(115.2, 199.53, 199.53, -115.2, -106487.4, 90403.23)" xlink:href="#linear-gradient"/><clipPath id="clip-path-4" transform="translate(8.28 -7.34)"><polygon class="cls-1" points="177.32 185.65 41.99 185.65 41.99 315.67 312.65 315.67 312.65 185.65 177.32 185.65"/></clipPath><linearGradient id="linear-gradient-4" x1="-107.72" y1="594.28" x2="-107.72" y2="595.57" gradientTransform="matrix(0, 201.6, 201.6, 0, -119751.17, 21894.86)" xlink:href="#linear-gradient"/><clipPath id="clip-path-5" transform="translate(8.28 -7.34)"><polygon class="cls-1" points="177.32 185.65 76.86 129.93 18.86 226.44 219.78 337.88 277.77 241.37 177.32 185.65"/></clipPath><linearGradient id="linear-gradient-5" x1="-106.84" y1="592.39" x2="-106.84" y2="593.67" gradientTransform="matrix(-86.4, 149.65, 149.65, 86.4, -97791.35, -35071.65)" xlink:href="#linear-gradient"/><clipPath id="clip-path-6" transform="translate(8.28 -7.34)"><polygon class="cls-1" points="177.32 185.65 128.98 105.22 45.27 151.66 141.93 312.51 225.65 266.08 177.32 185.65"/></clipPath><linearGradient id="linear-gradient-6" x1="-104.85" y1="590.87" x2="-104.85" y2="592.12" gradientTransform="matrix(-124.71, 72, 72, 124.71, -55485.32, -66028.84)" xlink:href="#linear-gradient"/><clipPath id="clip-path-7" transform="translate(8.28 -7.34)"><polygon class="cls-1" points="177.32 185.65 177.32 111.36 99.98 111.36 99.98 259.95 177.32 259.95 177.32 185.65"/></clipPath><linearGradient id="linear-gradient-7" x1="-101.74" y1="590.24" x2="-101.74" y2="591.48" gradientTransform="matrix(-115.2, 0, 0, 115.2, -11535.01, -67889.17)" xlink:href="#linear-gradient"/><clipPath id="clip-path-8" transform="translate(8.28 -7.34)"><polygon class="cls-1" points="177.32 185.65 206.32 137.4 156.09 109.54 98.09 206.05 148.32 233.91 177.32 185.65"/></clipPath><linearGradient id="linear-gradient-8" x1="-97.56" y1="591.2" x2="-97.56" y2="592.46" gradientTransform="matrix(-74.82, -43.2, -43.2, 74.82, 18444.63, -48312.29)" xlink:href="#linear-gradient"/><clipPath id="clip-path-9" transform="translate(8.28 -7.34)"><polygon class="cls-1" points="177.32 185.65 210.8 167.08 191.47 134.91 124.5 172.06 143.83 204.23 177.32 185.65"/></clipPath><linearGradient id="linear-gradient-9" x1="-91.99" y1="595" x2="-91.99" y2="596.28" gradientTransform="matrix(-28.8, -49.88, -49.88, 28.8, 27240.37, -21557.27)" xlink:href="#linear-gradient"/><clipPath id="clip-path-10" transform="translate(8.28 -7.34)"><polygon class="cls-1" points="177.32 185.65 196.65 185.65 196.65 167.08 157.98 167.08 157.98 185.65 177.32 185.65"/></clipPath><linearGradient id="linear-gradient-10" x1="-81.95" y1="606.89" x2="-81.95" y2="608.18" gradientTransform="matrix(0, -28.8, -28.8, 0, 17682.48, -2181.92)" xlink:href="#linear-gradient"/></defs><g id="shape_3" data-name="shape 3"><g class="cls-2"><g id="curve_1_c1" data-name="curve 1 c1"><ellipse class="cls-3" cx="185.6" cy="178.31" rx="185.6" ry="178.31"/></g></g><g id="curve_1_c0" data-name="curve 1 c0"><ellipse class="cls-4" cx="185.6" cy="178.31" rx="176.32" ry="169.39"/></g><g class="cls-5"><g id="curve_1_c1-2" data-name="curve 1 c1"><ellipse class="cls-6" cx="185.6" cy="178.31" rx="167.04" ry="160.48"/></g></g><g id="curve_1_c0-2" data-name="curve 1 c0"><ellipse class="cls-4" cx="185.6" cy="178.31" rx="157.76" ry="151.56"/></g><g class="cls-7"><g id="curve_1_c1-3" data-name="curve 1 c1"><path class="cls-8" d="M305.9,114.33c41,68.23,16.67,155.47-54.35,194.86S89.73,325.2,48.73,257,32.06,101.51,103.08,62.12,264.9,46.1,305.9,114.33Z" transform="translate(8.28 -7.34)"/></g></g><g id="curve_1_c0-3" data-name="curve 1 c0"><ellipse class="cls-4" cx="185.6" cy="178.31" rx="139.2" ry="133.73"/></g><g class="cls-9"><g id="curve_1_c1-4" data-name="curve 1 c1"><ellipse class="cls-10" cx="185.6" cy="178.31" rx="129.92" ry="124.81"/></g></g><g id="curve_1_c0-4" data-name="curve 1 c0"><ellipse class="cls-4" cx="185.6" cy="178.31" rx="120.64" ry="115.9"/></g><g class="cls-11"><g id="curve_1_c1-5" data-name="curve 1 c1"><ellipse class="cls-12" cx="185.6" cy="178.31" rx="111.36" ry="106.98"/></g></g><g id="curve_1_c0-5" data-name="curve 1 c0"><ellipse class="cls-4" cx="185.6" cy="178.31" rx="102.08" ry="98.07"/></g><g class="cls-13"><g id="curve_1_c1-6" data-name="curve 1 c1"><path class="cls-14" d="M223.72,262.86c-44.39,24.62-101.14,10-126.77-32.63s-10.42-97.17,34-121.79,101.14-10,126.76,32.64S268.1,238.24,223.72,262.86Z" transform="translate(8.28 -7.34)"/></g></g><g id="curve_1_c0-6" data-name="curve 1 c0"><ellipse class="cls-4" cx="185.6" cy="178.31" rx="83.52" ry="80.24"/></g><g class="cls-15"><g id="curve_1_c1-7" data-name="curve 1 c1"><ellipse class="cls-16" cx="185.6" cy="178.31" rx="74.24" ry="71.32"/></g></g><g id="curve_1_c0-7" data-name="curve 1 c0"><ellipse class="cls-4" cx="185.6" cy="178.31" rx="64.96" ry="62.41"/></g><g class="cls-17"><g id="curve_1_c1-8" data-name="curve 1 c1"><path class="cls-18" d="M149.48,232c-26.63-14.77-35.76-47.49-20.38-73.07s49.42-34.36,76.06-19.58,35.75,47.48,20.38,73.07S176.11,246.75,149.48,232Z" transform="translate(8.28 -7.34)"/></g></g><g id="curve_1_c0-8" data-name="curve 1 c0"><ellipse class="cls-4" cx="185.6" cy="178.31" rx="46.4" ry="44.58"/></g><g class="cls-19"><g id="curve_1_c1-9" data-name="curve 1 c1"><path class="cls-20" d="M145.17,203.48c-10.25-17-4.17-38.86,13.59-48.71s40.45-4,50.7,13,4.17,38.87-13.58,48.72S155.42,220.54,145.17,203.48Z" transform="translate(8.28 -7.34)"/></g></g><g id="curve_1_c0-9" data-name="curve 1 c0"><ellipse class="cls-4" cx="185.6" cy="178.31" rx="27.84" ry="26.75"/></g><g class="cls-21"><g id="curve_1_c1-10" data-name="curve 1 c1"><ellipse class="cls-22" cx="185.6" cy="178.31" rx="18.56" ry="17.83"/></g></g><g id="curve_1_c0-10" data-name="curve 1 c0"><ellipse class="cls-4" cx="185.6" cy="178.31" rx="9.28" ry="8.92"/></g></g></svg>